<?xml version="1.0" standalone="no"?>
<!DOCTYPE svg PUBLIC "-//W3C//DTD SVG 20010904//EN"
 "http://www.w3.org/TR/2001/REC-SVG-20010904/DTD/svg10.dtd">
<svg version="1.0" xmlns="http://www.w3.org/2000/svg"
 width="128.000000pt" height="128.000000pt" viewBox="0 0 128.000000 128.000000"
 preserveAspectRatio="xMidYMid meet">

<g transform="translate(0.000000,128.000000) scale(0.100000,-0.100000)"
fill="#000000" stroke="none">
<path d="M84 1058 c-29 -14 -44 -49 -44 -103 l0 -45 480 0 480 0 0 51 c0 43
-5 55 -29 80 l-29 29 -162 0 -161 0 12 -21 c6 -12 24 -26 40 -32 41 -16 39
-47 -2 -47 -36 0 -89 47 -89 79 0 20 -4 21 -180 21 l-181 0 12 -21 c6 -12 24
-26 40 -32 41 -16 39 -47 -2 -47 -36 0 -89 47 -89 79 0 18 -6 21 -37 20 -21 0
-48 -5 -59 -11z"/>
<path d="M114 817 c-2 -7 -3 -60 -2 -118 l3 -104 38 -3 c23 -2 48 3 62 12 21
14 23 22 23 102 0 71 -3 89 -19 105 -22 22 -97 27 -105 6z m90 -42 c10 -26 -5
-45 -35 -45 -26 0 -29 4 -29 30 0 26 3 30 29 30 16 0 31 -6 35 -15z m0 -100
c10 -26 -5 -45 -35 -45 -26 0 -29 4 -29 30 0 26 3 30 29 30 16 0 31 -6 35 -15z"/>
<path d="M316 809 c-24 -19 -26 -26 -26 -99 0 -73 2 -80 26 -99 33 -26 58 -27
84 -1 17 17 20 33 20 100 0 67 -3 83 -20 100 -26 26 -51 25 -84 -1z m68 -35
c3 -9 6 -37 6 -64 0 -61 -7 -80 -31 -80 -24 0 -39 30 -39 80 0 23 5 50 10 61
13 23 46 25 54 3z"/>
<path d="M496 809 c-24 -19 -26 -26 -26 -99 0 -73 2 -80 26 -99 33 -26 58 -27
84 -1 17 17 20 33 20 100 0 67 -3 83 -20 100 -26 26 -51 25 -84 -1z m68 -35
c3 -9 6 -37 6 -64 0 -61 -7 -80 -31 -80 -24 0 -39 30 -39 80 0 23 5 50 10 61
13 23 46 25 54 3z"/>
<path d="M654 817 c-10 -28 1 -220 14 -225 8 -2 12 11 12 47 0 47 2 51 24 51
30 0 44 -16 48 -59 2 -19 9 -36 16 -39 16 -5 17 89 0 106 -9 9 -9 15 0 24 17
17 16 111 0 106 -7 -3 -14 -20 -16 -39 -4 -43 -18 -59 -48 -59 -22 0 -24 4
-24 50 0 47 -14 67 -26 37z"/>
<path d="M115 497 c-3 -7 -4 -60 -3 -118 3 -114 21 -143 26 -41 2 34 6 62 10
62 4 0 22 -30 40 -66 22 -44 37 -63 43 -57 13 13 7 229 -6 226 -5 -2 -12 -31
-15 -65 l-5 -63 -32 62 c-35 66 -50 82 -58 60z"/>
<path d="M333 499 c-32 -12 -43 -40 -43 -112 0 -76 20 -109 63 -109 51 -1 67
26 67 112 0 61 -4 80 -17 92 -26 22 -45 26 -70 17z m52 -109 c0 -71 -1 -75
-24 -78 -31 -5 -41 12 -41 75 0 70 7 85 39 81 25 -3 26 -5 26 -78z"/>
<path d="M477 503 c-4 -3 -7 -47 -7 -98 0 -103 11 -128 53 -126 34 2 51 2 82
0 49 -3 56 15 53 125 -4 129 -22 130 -26 0 -3 -92 -4 -95 -25 -92 -21 3 -22 9
-27 98 -3 53 -9 95 -15 95 -6 0 -11 -41 -13 -98 -3 -95 -3 -98 -25 -95 -21 3
-22 9 -25 93 -3 85 -10 114 -25 98z"/>
</g>
</svg>
