<?xml version="1.0" standalone="no"?>
<!DOCTYPE svg PUBLIC "-//W3C//DTD SVG 20010904//EN"
 "http://www.w3.org/TR/2001/REC-SVG-20010904/DTD/svg10.dtd">
<svg version="1.0" xmlns="http://www.w3.org/2000/svg"
 width="1600.000000pt" height="1353.000000pt" viewBox="0 0 1600.000000 1353.000000"
 preserveAspectRatio="xMidYMid meet">

<g transform="translate(0.000000,1353.000000) scale(0.100000,-0.100000)"
fill="#000000" stroke="none">
<path d="M9315 13144 c-660 -50 -1187 -217 -1706 -541 -113 -71 -342 -237
-395 -288 -6 -5 -44 -39 -85 -75 -490 -427 -874 -1040 -1055 -1685 -188 -668
-175 -1400 37 -2055 74 -226 208 -529 302 -684 l24 -39 17 24 c9 13 16 18 16
12 0 -6 -7 -16 -15 -23 -8 -7 -15 -16 -15 -20 0 -4 38 -65 85 -135 347 -517
764 -898 1304 -1189 137 -74 164 -85 155 -62 -10 27 23 66 56 66 28 0 30 -2
30 -40 0 -29 -4 -40 -15 -40 -8 0 -15 9 -15 20 0 20 -19 29 -21 10 -5 -38 -2
-45 23 -54 21 -8 32 -6 46 7 10 9 24 17 30 17 18 0 14 -28 -5 -39 -10 -5 -16
-12 -13 -14 8 -8 189 -77 282 -108 208 -69 440 -121 693 -155 187 -25 656 -26
845 0 455 60 815 171 1200 367 167 85 203 107 195 119 -3 5 0 7 8 4 26 -9 282
166 467 320 280 233 564 565 759 886 426 704 594 1549 471 2366 -151 1004
-710 1876 -1570 2449 -70 47 -131 85 -135 85 -4 0 -19 9 -34 19 -37 27 -308
161 -411 204 -324 136 -667 222 -1020 257 -114 11 -454 20 -535 14z m-635
-117 c0 -2 -17 -19 -37 -38 l-38 -34 34 38 c33 34 41 42 41 34z m1510 0 c0 -2
-10 -12 -22 -23 l-23 -19 19 23 c18 21 26 27 26 19z m-80 -80 c0 -2 -10 -12
-22 -23 l-23 -19 19 23 c18 21 26 27 26 19z m-80 -80 c0 -2 -10 -12 -22 -23
l-23 -19 19 23 c18 21 26 27 26 19z m-80 -80 c0 -2 -10 -12 -22 -23 l-23 -19
19 23 c18 21 26 27 26 19z m-80 -80 c0 -2 -10 -12 -22 -23 l-23 -19 19 23 c18
21 26 27 26 19z m1395 -105 c-3 -3 -16 5 -28 17 l-22 23 28 -17 c15 -10 25
-20 22 -23z m-3005 -2 c0 -4 -6 -10 -13 -13 -7 -3 -13 3 -13 13 0 10 6 16 13
13 7 -3 13 -9 13 -13z m1510 0 c0 -5 -5 -10 -11 -10 -5 0 -7 5 -4 10 3 6 8 10
11 10 2 0 4 -4 4 -10z m1480 -14 c0 -2 -7 -7 -16 -10 -8 -3 -12 -2 -9 4 6 10
25 14 25 6z m41 -13 c13 -16 12 -17 -3 -4 -17 13 -22 21 -14 21 2 0 10 -8 17
-17z m-1471 -28 c19 -19 32 -35 29 -35 -3 0 -20 16 -39 35 -19 19 -32 35 -29
35 3 0 20 -16 39 -35z m-1600 22 c0 -2 -10 -12 -22 -23 l-23 -19 19 23 c18 21
26 27 26 19z m1532 -164 l3 -167 88 -13 c113 -16 278 -56 372 -89 l73 -26 59
23 c88 34 228 33 303 -2 73 -35 135 -99 173 -179 27 -55 32 -77 33 -148 1 -79
3 -86 36 -130 91 -122 138 -208 193 -351 32 -86 72 -238 64 -244 -5 -4 -915
-108 -940 -107 -11 0 -19 17 -28 53 -41 180 -184 353 -369 446 l-62 31 0 -649
0 -648 63 -12 c105 -20 384 -96 442 -120 11 -5 63 -26 115 -46 234 -93 432
-218 581 -365 145 -144 236 -287 293 -463 91 -279 85 -647 -16 -939 -16 -48
-26 -93 -22 -99 4 -7 3 -9 -3 -6 -5 3 -24 -24 -42 -60 -18 -36 -50 -92 -72
-125 -21 -33 -36 -64 -33 -70 4 -6 2 -8 -3 -5 -6 4 -19 -6 -29 -21 -27 -42
-154 -170 -207 -209 -26 -19 -44 -40 -40 -45 3 -7 1 -8 -5 -4 -7 4 -40 -13
-74 -37 -209 -149 -555 -279 -870 -328 l-78 -12 0 -268 0 -269 -275 0 -275 0
0 260 c0 143 -4 260 -9 260 -29 0 -261 45 -341 66 -497 130 -871 426 -1069
844 -55 117 -100 248 -127 367 -9 43 -19 72 -22 65 -2 -7 -27 -25 -55 -39 -45
-23 -64 -27 -137 -27 -72 0 -93 4 -135 26 -66 34 -109 79 -142 148 -37 77 -39
199 -4 284 71 177 294 261 494 186 107 -40 199 -167 212 -293 9 -82 -7 -144
-38 -150 -66 -13 61 -4 388 28 198 19 367 35 376 35 12 0 24 -24 44 -87 72
-234 208 -438 357 -541 46 -32 149 -85 186 -96 l22 -7 0 689 0 690 -72 22
c-254 75 -461 161 -640 266 -43 25 -82 43 -88 39 -5 -3 -7 0 -5 7 3 8 -8 21
-25 32 -86 50 -231 183 -311 286 -33 41 -64 80 -69 87 -18 22 -109 198 -130
252 -37 96 -69 243 -81 373 -20 210 13 437 89 627 16 40 34 77 41 84 6 6 11
15 11 19 0 16 88 143 141 203 65 75 69 79 167 158 177 143 418 259 670 321 87
21 131 30 265 51 l37 6 0 164 0 165 275 0 275 0 2 -167z m1619 90 c13 -16 12
-17 -3 -4 -17 13 -22 21 -14 21 2 0 10 -8 17 -17z m-1456 -43 c10 -11 16 -20
13 -20 -3 0 -13 9 -23 20 -10 11 -16 20 -13 20 3 0 13 -9 23 -20z m-1847 -42
c2 -28 -1 -38 -12 -38 -9 0 -16 11 -18 28 -3 27 -3 27 -16 5 -6 -12 -9 -29 -6
-37 9 -24 52 -31 73 -12 22 20 41 21 41 2 0 -18 -44 -46 -73 -46 -29 0 -65 32
-73 65 -9 37 20 77 54 73 23 -3 27 -8 30 -40z m-91 -121 c57 -54 42 -74 -15
-22 -26 23 -45 33 -56 29 -25 -10 -19 -32 19 -65 34 -30 46 -59 25 -59 -6 0
-24 16 -41 35 -33 37 -63 45 -73 19 -8 -22 -10 -19 29 -61 36 -39 42 -53 25
-53 -19 0 -90 78 -90 99 0 22 32 61 50 61 6 0 10 6 10 14 0 17 37 46 58 46 7
0 34 -20 59 -43z m-263 2 c14 -11 26 -27 26 -36 0 -11 -7 -7 -21 11 -22 28
-55 33 -83 13 -23 -17 -24 -66 -1 -83 29 -22 74 -2 75 32 0 18 -28 37 -45 30
-20 -7 -19 -32 1 -40 12 -4 15 -2 10 9 -3 8 -1 15 5 15 17 0 5 -34 -13 -38
-24 -5 -44 36 -26 53 24 24 49 21 71 -7 19 -25 19 -28 4 -52 -24 -35 -54 -42
-86 -19 -36 27 -40 77 -10 109 28 29 58 31 93 3z m-524 -94 c13 -14 21 -25 18
-25 -2 0 -15 11 -28 25 -13 14 -21 25 -18 25 2 0 15 -11 28 -25z m602 -72 c49
-48 57 -63 36 -63 -16 0 -98 83 -98 98 0 21 13 13 62 -35z m-92 -22 c0 -4 -12
-20 -27 -35 l-26 -26 23 -25 c13 -14 32 -25 42 -25 24 0 34 26 18 45 -15 18
-7 30 14 22 25 -10 31 -55 11 -77 -31 -35 -65 -25 -124 34 -34 34 -49 56 -42
61 7 4 18 2 25 -4 9 -8 19 -4 36 14 23 25 50 33 50 16z m-110 -105 c0 -8 -4
-18 -10 -21 -14 -8 -13 -21 3 -37 47 -47 57 -98 20 -112 -23 -9 -28 0 -15 28
9 19 8 27 -4 37 -22 18 -42 62 -36 79 12 36 42 54 42 26z m4540 -45 c0 -5 -7
-12 -16 -15 -14 -5 -15 -4 -4 9 14 17 20 19 20 6z m-4608 -118 c35 -34 49 -63
30 -63 -4 0 -23 16 -42 35 -37 38 -64 45 -74 18 -5 -11 5 -28 29 -53 19 -20
35 -39 35 -43 0 -16 -26 -5 -56 24 -59 57 -90 12 -33 -47 49 -50 30 -67 -19
-18 -51 51 -58 97 -17 116 14 6 25 15 25 20 0 16 41 48 62 48 12 0 39 -17 60
-37z m-172 -180 c28 -25 38 -39 30 -47 -7 -7 -20 0 -44 23 -44 43 -80 40 -84
-6 -4 -39 25 -60 59 -42 34 18 47 -5 15 -26 -22 -15 -31 -16 -56 -5 -77 32
-63 140 17 140 13 0 41 -16 63 -37z m411 -50 c13 -16 12 -17 -3 -4 -17 13 -22
21 -14 21 2 0 10 -8 17 -17z m-583 -81 c2 -33 0 -42 -12 -42 -11 0 -16 9 -16
27 0 25 -1 26 -17 11 -15 -16 -15 -19 1 -42 21 -32 37 -33 74 -1 55 46 73 25
22 -25 -36 -35 -67 -38 -103 -10 -46 36 -43 100 6 120 34 13 42 7 45 -38z
m663 1 c13 -16 12 -17 -3 -4 -17 13 -22 21 -14 21 2 0 10 -8 17 -17z m-797
-89 c-5 -21 1 -33 31 -64 26 -27 33 -40 24 -45 -17 -11 -89 68 -89 98 0 27 7
37 27 37 9 0 11 -8 7 -26z m-59 -79 c22 -21 45 -60 45 -79 0 -27 -39 -66 -66
-66 -52 0 -99 76 -71 114 18 25 41 13 27 -15 -21 -38 33 -86 65 -59 25 21 16
43 -41 103 -60 63 -65 100 -6 45 20 -18 41 -37 47 -43z m5666 -132 c13 -16 12
-17 -3 -4 -17 13 -22 21 -14 21 2 0 10 -8 17 -17z m-2801 -36 c0 -2 -17 -19
-37 -38 l-38 -34 34 38 c33 34 41 42 41 34z m-3080 -77 c0 -5 -4 -10 -10 -10
-5 0 -10 5 -10 10 0 6 5 10 10 10 6 0 10 -4 10 -10z m4516 -9 c0 -11 -5 -17
-13 -14 -17 6 -17 20 0 26 6 3 12 6 12 6 1 1 1 -7 1 -18z m-1442 -97 c3 -8 2
-12 -4 -9 -6 3 -10 10 -10 16 0 14 7 11 14 -7z m141 -134 c3 -5 1 -10 -4 -10
-6 0 -11 5 -11 10 0 6 2 10 4 10 3 0 8 -4 11 -10z m90 -90 c3 -6 -1 -7 -9 -4
-18 7 -21 14 -7 14 6 0 13 -4 16 -10z m-2365 -233 c0 -2 -10 -12 -22 -23 l-23
-19 19 23 c18 21 26 27 26 19z m2634 -36 c-5 -6 -34 20 -34 30 0 5 8 1 18 -8
10 -10 17 -20 16 -22z m-2714 -44 c0 -2 -10 -12 -22 -23 l-23 -19 19 23 c18
21 26 27 26 19z m2800 -37 c0 -5 -2 -10 -4 -10 -3 0 -8 5 -11 10 -3 6 -1 10 4
10 6 0 11 -4 11 -10z m-2907 -63 c4 3 7 1 7 -5 0 -20 -15 -13 -46 21 l-29 32
31 -28 c17 -15 33 -24 37 -20z m2997 -27 c0 -5 -4 -10 -10 -10 -5 0 -10 5 -10
10 0 6 5 10 10 10 6 0 10 -4 10 -10z m-3050 -33 c0 -2 -10 -12 -22 -23 l-23
-19 19 23 c18 21 26 27 26 19z m-80 -80 c0 -2 -10 -12 -22 -23 l-23 -19 19 23
c18 21 26 27 26 19z m-80 -80 c0 -2 -10 -12 -22 -23 l-23 -19 19 23 c18 21 26
27 26 19z m-80 -80 c0 -2 -10 -12 -22 -23 l-23 -19 19 23 c18 21 26 27 26 19z
m3600 -32 c19 -19 32 -35 29 -35 -3 0 -20 16 -39 35 -19 19 -32 35 -29 35 3 0
20 -16 39 -35z m-3680 -48 c0 -2 -10 -12 -22 -23 l-23 -19 19 23 c18 21 26 27
26 19z m3775 -47 c10 -11 16 -20 13 -20 -3 0 -13 9 -23 20 -10 11 -16 20 -13
20 3 0 13 -9 23 -20z m-3855 -33 c0 -2 -10 -12 -22 -23 l-23 -19 19 23 c18 21
26 27 26 19z m-80 -80 c0 -2 -10 -12 -22 -23 l-23 -19 19 23 c18 21 26 27 26
19z m-80 -80 c0 -2 -10 -12 -22 -23 l-23 -19 19 23 c18 21 26 27 26 19z m6000
0 c0 -2 -10 -12 -22 -23 l-23 -19 19 23 c18 21 26 27 26 19z m-6080 -80 c0 -2
-10 -12 -22 -23 l-23 -19 19 23 c18 21 26 27 26 19z m4395 -26 c-6 -5 -25 10
-25 20 0 5 6 4 14 -3 8 -7 12 -15 11 -17z m1605 26 c0 -2 -10 -12 -22 -23
l-23 -19 19 23 c18 21 26 27 26 19z m-1550 -42 c-10 -12 -10 -18 0 -30 8 -9 8
-15 2 -15 -6 0 -12 6 -15 13 -3 9 -8 8 -23 -3 -18 -14 -18 -14 -5 3 13 16 13
20 0 28 -10 8 -9 9 8 4 12 -3 24 -1 28 5 3 5 9 10 12 10 3 0 0 -7 -7 -15z
m-3003 -12 c-4 -3 1 -16 10 -27 18 -21 18 -21 -4 -2 -25 21 -30 36 -11 36 6 0
8 -3 5 -7z m-1527 -26 c0 -2 -10 -12 -22 -23 l-23 -19 19 23 c18 21 26 27 26
19z m1500 0 c0 -2 -10 -12 -22 -23 l-23 -19 19 23 c18 21 26 27 26 19z m4500
0 c0 -2 -10 -12 -22 -23 l-23 -19 19 23 c18 21 26 27 26 19z m-1520 -21 c0 -2
-7 -7 -16 -10 -8 -3 -12 -2 -9 4 6 10 25 14 25 6z m-4560 -59 c0 -2 -10 -12
-22 -23 l-23 -19 19 23 c18 21 26 27 26 19z m6000 0 c0 -2 -10 -12 -22 -23
l-23 -19 19 23 c18 21 26 27 26 19z m-6080 -80 c0 -2 -10 -12 -22 -23 l-23
-19 19 23 c18 21 26 27 26 19z m6000 0 c0 -2 -10 -12 -22 -23 l-23 -19 19 23
c18 21 26 27 26 19z m-6080 -80 c0 -2 -10 -12 -22 -23 l-23 -19 19 23 c18 21
26 27 26 19z m6000 0 c0 -2 -10 -12 -22 -23 l-23 -19 19 23 c18 21 26 27 26
19z m-6080 -80 c0 -2 -10 -12 -22 -23 l-23 -19 19 23 c18 21 26 27 26 19z
m6000 0 c0 -2 -10 -12 -22 -23 l-23 -19 19 23 c18 21 26 27 26 19z m-6080 -80
c0 -2 -10 -12 -22 -23 l-23 -19 19 23 c18 21 26 27 26 19z m6000 0 c0 -2 -10
-12 -22 -23 l-23 -19 19 23 c18 21 26 27 26 19z m-6080 -80 c0 -2 -10 -12 -22
-23 l-23 -19 19 23 c18 21 26 27 26 19z m6000 0 c0 -2 -10 -12 -22 -23 l-23
-19 19 23 c18 21 26 27 26 19z m-6080 -80 c0 -2 -10 -12 -22 -23 l-23 -19 19
23 c18 21 26 27 26 19z m6000 0 c0 -2 -10 -12 -22 -23 l-23 -19 19 23 c18 21
26 27 26 19z m-6080 -81 c0 -2 -8 -10 -17 -17 -16 -13 -17 -12 -4 4 13 16 21
21 21 13z m6000 1 c0 -2 -10 -12 -22 -23 l-23 -19 19 23 c18 21 26 27 26 19z
m-80 -80 c0 -2 -10 -12 -22 -23 l-23 -19 19 23 c18 21 26 27 26 19z m-80 -80
c0 -2 -10 -12 -22 -23 l-23 -19 19 23 c18 21 26 27 26 19z m-80 -80 c0 -2 -10
-12 -22 -23 l-23 -19 19 23 c18 21 26 27 26 19z m-80 -80 c0 -2 -10 -12 -22
-23 l-23 -19 19 23 c18 21 26 27 26 19z m-80 -80 c0 -2 -10 -12 -22 -23 l-23
-19 19 23 c18 21 26 27 26 19z m-80 -80 c0 -2 -10 -12 -22 -23 l-23 -19 19 23
c18 21 26 27 26 19z m-80 -80 c0 -2 -10 -12 -22 -23 l-23 -19 19 23 c18 21 26
27 26 19z m-80 -80 c0 -2 -10 -12 -22 -23 l-23 -19 19 23 c18 21 26 27 26 19z
m-4580 -80 c0 -2 -10 -12 -22 -23 l-23 -19 19 23 c18 21 26 27 26 19z m4500 0
c0 -2 -17 -19 -37 -38 l-38 -34 34 38 c33 34 41 42 41 34z m-145 -103 c13 -14
18 -14 33 -2 15 12 16 11 3 -4 -11 -15 -11 -21 0 -35 13 -16 12 -17 -3 -5 -9
8 -23 10 -29 6 -8 -5 -9 -3 -5 5 5 7 0 21 -10 32 -21 23 -12 26 11 3z m-4485
-34 c0 -5 -5 -10 -11 -10 -5 0 -7 5 -4 10 3 6 8 10 11 10 2 0 4 -4 4 -10z
m-30 -23 c0 -2 -10 -12 -22 -23 l-23 -19 19 23 c18 21 26 27 26 19z m4470 -31
c0 -2 -8 -10 -17 -17 -16 -13 -17 -12 -4 4 13 16 21 21 21 13z m1471 -29 c-10
-9 -11 -8 -5 6 3 10 9 15 12 12 3 -3 0 -11 -7 -18z m-1310 -4 c13 -16 12 -17
-3 -4 -10 7 -18 15 -18 17 0 8 8 3 21 -13z m-4711 -16 c0 -2 -10 -12 -22 -23
l-23 -19 19 23 c18 21 26 27 26 19z m5990 -11 c0 -2 -8 -10 -17 -17 -16 -13
-17 -12 -4 4 13 16 21 21 21 13z m-1199 -53 c13 -16 12 -17 -3 -4 -10 7 -18
15 -18 17 0 8 8 3 21 -13z m1147 -3 c-7 -10 -14 -17 -17 -15 -4 4 18 35 25 35
2 0 -1 -9 -8 -20z m-6018 -13 c0 -2 -10 -12 -22 -23 l-23 -19 19 23 c18 21 26
27 26 19z m5990 -11 c0 -2 -8 -10 -17 -17 -16 -13 -17 -12 -4 4 13 16 21 21
21 13z m-1039 -53 c13 -16 12 -17 -3 -4 -10 7 -18 15 -18 17 0 8 8 3 21 -13z
m969 -16 c0 -2 -10 -12 -22 -23 l-23 -19 19 23 c18 21 26 27 26 19z m-4525
-46 c-3 -6 -11 -11 -16 -11 -5 0 -4 6 3 14 14 16 24 13 13 -3z m3636 -18 c13
-16 12 -17 -3 -4 -10 7 -18 15 -18 17 0 8 8 3 21 -13z m809 -16 c0 -2 -10 -12
-22 -23 l-23 -19 19 23 c18 21 26 27 26 19z m-729 -64 c13 -16 12 -17 -3 -4
-10 7 -18 15 -18 17 0 8 8 3 21 -13z m649 -16 c0 -2 -10 -12 -22 -23 l-23 -19
19 23 c18 21 26 27 26 19z m-569 -64 c13 -16 12 -17 -3 -4 -17 13 -22 21 -14
21 2 0 10 -8 17 -17z m489 -16 c0 -2 -10 -12 -22 -23 l-23 -19 19 23 c18 21
26 27 26 19z m-1510 -11 c0 -2 -8 -10 -17 -17 -16 -13 -17 -12 -4 4 13 16 21
21 21 13z m-3050 -69 c0 -2 -17 -19 -37 -38 l-38 -34 34 38 c33 34 41 42 41
34z m2963 -21 c-10 -13 -20 -22 -22 -20 -4 4 29 44 36 44 2 0 -4 -11 -14 -24z
m-63 -60 c0 -2 -8 -10 -17 -17 -16 -13 -17 -12 -4 4 13 16 21 21 21 13z
m-3010 -29 c0 -2 -10 -12 -22 -23 l-23 -19 19 23 c18 21 26 27 26 19z m2901
-14 c13 -16 12 -17 -3 -4 -10 7 -18 15 -18 17 0 8 8 3 21 -13z m39 -33 c0 -5
-4 -10 -10 -10 -5 0 -10 5 -10 10 0 6 5 10 10 10 6 0 10 -4 10 -10z m-2990
-10 c0 -5 -10 -15 -22 -21 -23 -12 -23 -12 -4 10 21 23 26 26 26 11z m4450
-23 c0 -2 -10 -12 -22 -23 l-23 -19 19 23 c18 21 26 27 26 19z m-1550 -50 c0
-2 -10 -12 -22 -23 l-23 -19 19 23 c18 21 26 27 26 19z m1500 0 c0 -2 -10 -12
-22 -23 l-23 -19 19 23 c18 21 26 27 26 19z m-4500 -21 c0 -3 -4 -8 -10 -11
-5 -3 -10 -1 -10 4 0 6 5 11 10 11 6 0 10 -2 10 -4z m3221 -33 c13 -16 12 -17
-3 -4 -10 7 -18 15 -18 17 0 8 8 3 21 -13z m-301 -26 c0 -2 -10 -12 -22 -23
l-23 -19 19 23 c18 21 26 27 26 19z m381 -54 c13 -16 12 -17 -3 -4 -10 7 -18
15 -18 17 0 8 8 3 21 -13z m-461 -26 c0 -2 -10 -12 -22 -23 l-23 -19 19 23
c18 21 26 27 26 19z m541 -54 c13 -16 12 -17 -3 -4 -10 7 -18 15 -18 17 0 8 8
3 21 -13z m-621 -26 c0 -2 -10 -12 -22 -23 l-23 -19 19 23 c18 21 26 27 26 19z
m701 -54 c13 -16 12 -17 -3 -4 -10 7 -18 15 -18 17 0 8 8 3 21 -13z m-781 -26
c0 -2 -10 -12 -22 -23 l-23 -19 19 23 c18 21 26 27 26 19z m861 -54 c13 -16
12 -17 -3 -4 -17 13 -22 21 -14 21 2 0 10 -8 17 -17z m-941 -26 c0 -2 -10 -12
-22 -23 l-23 -19 19 23 c18 21 26 27 26 19z m1460 -36 c0 -5 -7 -12 -16 -15
-14 -5 -15 -4 -4 9 14 17 20 19 20 6z m-439 -18 c13 -16 12 -17 -3 -4 -10 7
-18 15 -18 17 0 8 8 3 21 -13z m-1101 -26 c0 -2 -10 -12 -22 -23 l-23 -19 19
23 c18 21 26 27 26 19z m1181 -54 c13 -16 12 -17 -3 -4 -17 13 -22 21 -14 21
2 0 10 -8 17 -17z m-1261 -26 c0 -2 -10 -12 -22 -23 l-23 -19 19 23 c18 21 26
27 26 19z m1394 -108 c-3 -5 -15 -14 -27 -19 -21 -11 -21 -10 -3 4 19 15 19
16 0 37 l-19 22 27 -18 c15 -9 25 -21 22 -26z m-3004 1 c0 -4 -6 -10 -13 -13
-7 -3 -13 3 -13 13 0 10 6 16 13 13 7 -3 13 -9 13 -13z m1510 0 c0 -5 -5 -10
-11 -10 -5 0 -7 5 -4 10 3 6 8 10 11 10 2 0 4 -4 4 -10z m1521 -27 c13 -16 12
-17 -3 -4 -10 7 -18 15 -18 17 0 8 8 3 21 -13z m-3071 -6 c0 -2 -10 -12 -22
-23 l-23 -19 19 23 c18 21 26 27 26 19z m1490 -20 c0 -2 -10 -12 -22 -23 l-23
-19 19 23 c18 21 26 27 26 19z m125 -17 c10 -11 16 -20 13 -20 -3 0 -13 9 -23
20 -10 11 -16 20 -13 20 3 0 13 -9 23 -20z m1295 -53 c0 -2 -10 -12 -22 -23
l-23 -19 19 23 c18 21 26 27 26 19z m-1500 -10 c0 -2 -10 -12 -22 -23 l-23
-19 19 23 c18 21 26 27 26 19z m285 -17 c10 -11 16 -20 13 -20 -3 0 -13 9 -23
20 -10 11 -16 20 -13 20 3 0 13 -9 23 -20z m-365 -63 c0 -2 -10 -12 -22 -23
l-23 -19 19 23 c18 21 26 27 26 19z m-80 -80 c0 -2 -10 -12 -22 -23 l-23 -19
19 23 c18 21 26 27 26 19z m-80 -80 c0 -2 -10 -12 -22 -23 l-23 -19 19 23 c18
21 26 27 26 19z"/>
<path d="M10425 12052 c18 -18 130 -72 148 -72 10 0 15 -4 12 -10 -3 -6 1 -7
9 -4 11 4 45 -24 107 -87 l91 -94 -5 38 c-8 53 -46 124 -85 158 -60 53 -110
72 -202 77 -56 3 -82 1 -75 -6z"/>
<path d="M9114 11477 c-108 -44 -162 -77 -232 -142 -100 -93 -149 -207 -159
-370 -5 -82 -2 -115 15 -183 47 -186 158 -298 385 -389 l77 -32 0 575 c0 316
-1 574 -2 574 -2 -1 -39 -15 -84 -33z m66 -960 c0 -2 -10 -12 -22 -23 l-23
-19 19 23 c18 21 26 27 26 19z m-50 -50 c0 -2 -10 -12 -22 -23 l-23 -19 19 23
c18 21 26 27 26 19z"/>
<path d="M9750 8624 c0 -354 4 -644 8 -644 5 0 44 9 87 21 331 86 534 326 535
631 0 53 -4 71 -19 85 -27 26 -34 58 -17 75 34 34 -66 198 -173 284 -69 55
-228 134 -338 168 l-83 24 0 -644z m584 44 c20 -17 36 -38 36 -45 0 -19 -14
-16 -36 8 -45 50 -94 49 -94 -2 0 -23 6 -32 26 -39 18 -7 31 -7 40 1 13 11 34
5 34 -10 0 -14 -47 -30 -71 -24 -56 13 -80 97 -37 127 34 24 62 19 102 -16z
m-166 -136 c2 -33 0 -42 -12 -42 -10 0 -16 9 -16 25 0 28 -15 33 -24 9 -8 -22
20 -64 42 -64 10 0 29 11 42 25 25 26 50 33 50 13 0 -19 -62 -68 -85 -68 -30
0 -71 34 -79 65 -8 31 8 63 37 75 34 13 42 7 45 -38z m-134 -89 c-4 -22 1 -34
25 -57 30 -29 41 -56 22 -56 -5 0 -25 18 -45 40 -44 49 -49 100 -10 100 9 0
12 -9 8 -27z m-80 -61 c61 -58 75 -91 56 -127 -38 -71 -164 -2 -131 72 6 13
17 23 26 23 18 0 19 -5 4 -31 -22 -41 37 -89 69 -57 22 22 13 44 -43 103 -51
53 -69 82 -46 73 5 -1 35 -27 65 -56z m-99 -360 c-3 -3 -11 0 -18 7 -9 10 -8
11 6 5 10 -3 15 -9 12 -12z"/>
<path d="M7420 9061 c-169 -52 -234 -245 -132 -395 65 -95 226 -116 307 -40
57 54 74 158 35 222 -36 59 -118 78 -178 42 -67 -41 -70 -149 -5 -179 36 -17
58 0 58 45 0 65 65 75 73 11 7 -61 -65 -125 -125 -111 -78 19 -119 58 -129
121 -9 62 3 109 39 150 82 94 211 97 301 8 64 -65 96 -179 66 -236 -10 -17 -7
-19 19 -19 37 0 41 7 48 75 14 134 -64 256 -191 298 -51 18 -142 21 -186 8z"/>
<path d="M6830 5744 c-14 -2 -59 -9 -100 -15 -222 -32 -331 -77 -900 -372
-752 -391 -1042 -525 -1430 -662 -74 -26 -147 -52 -162 -57 l-28 -10 0 -984
c0 -984 0 -984 20 -964 11 11 31 20 45 20 27 0 95 -54 95 -76 0 -20 -14 -17
-36 7 -45 50 -94 49 -94 -2 0 -23 6 -32 26 -39 18 -7 31 -7 40 1 13 11 34 5
34 -10 0 -14 -51 -31 -76 -25 -13 4 -31 18 -39 33 -14 25 -14 23 -14 -39 0
-36 3 -59 6 -52 7 17 33 15 33 -3 0 -8 -9 -20 -20 -27 -17 -11 -20 -24 -20
-94 l0 -81 108 -26 c149 -36 853 -203 932 -221 36 -8 106 -25 155 -36 448
-106 1428 -301 1785 -355 476 -72 642 -88 885 -89 188 0 225 2 350 27 351 67
775 211 1316 445 436 188 1074 495 1064 512 -3 6 0 7 9 4 9 -3 207 91 473 226
252 128 463 236 468 240 6 4 127 67 270 140 143 73 283 145 310 160 28 15 221
114 430 220 476 242 612 324 753 454 263 245 192 465 -188 579 -204 62 -485
87 -767 69 -443 -29 -760 -100 -1203 -270 -722 -277 -1438 -445 -2204 -517
-182 -17 -627 -35 -741 -29 -38 2 -135 5 -215 8 -241 9 -554 48 -765 97 -122
28 -126 30 -90 40 67 20 505 111 667 139 476 82 795 116 1293 140 297 14 476
43 683 111 252 82 432 210 500 357 23 47 27 70 26 137 0 69 -4 88 -31 140 -31
58 -125 160 -188 202 -232 154 -587 238 -1115 263 -395 18 -692 56 -1155 145
-327 64 -606 115 -622 115 -8 0 -3 -10 13 -23 15 -13 25 -30 22 -37 -3 -10
-18 -1 -49 27 -44 41 -45 41 -153 52 -102 10 -349 13 -406 5z m520 -91 c28
-25 38 -39 30 -47 -7 -7 -20 0 -44 23 -28 27 -40 32 -60 27 -21 -5 -26 -13
-26 -36 0 -37 30 -56 61 -39 34 18 47 -5 15 -26 -22 -15 -31 -16 -56 -5 -77
32 -63 140 17 140 13 0 41 -16 63 -37z m405 -43 c10 -11 16 -20 13 -20 -3 0
-13 9 -23 20 -10 11 -16 20 -13 20 3 0 13 -9 23 -20z m-577 -88 c2 -33 0 -42
-12 -42 -11 0 -16 9 -16 27 0 25 -1 26 -17 11 -15 -16 -15 -19 1 -42 21 -32
37 -33 74 -1 33 28 52 32 52 11 0 -18 -64 -66 -88 -66 -27 0 -69 35 -76 65 -8
31 8 63 37 75 34 13 42 7 45 -38z m663 1 c13 -16 12 -17 -3 -4 -10 7 -18 15
-18 17 0 8 8 3 21 -13z m804 -43 c-3 -5 -12 -10 -18 -10 -7 0 -6 4 3 10 19 12
23 12 15 0z m-1601 -46 c-5 -21 1 -33 31 -64 26 -27 33 -40 24 -45 -17 -11
-89 68 -89 98 0 27 7 37 27 37 9 0 11 -8 7 -26z m877 9 c13 -16 12 -17 -3 -4
-10 7 -18 15 -18 17 0 8 8 3 21 -13z m-936 -88 c22 -21 45 -60 45 -79 0 -27
-39 -66 -66 -66 -52 0 -99 76 -71 114 19 26 41 12 26 -15 -22 -41 37 -89 69
-57 21 21 12 42 -44 101 -60 63 -65 100 -6 45 20 -18 41 -37 47 -43z m1605 72
c0 -2 -10 -12 -22 -23 l-23 -19 19 23 c18 21 26 27 26 19z m-589 -64 c13 -16
12 -17 -3 -4 -10 7 -18 15 -18 17 0 8 8 3 21 -13z m509 -16 c0 -2 -10 -12 -22
-23 l-23 -19 19 23 c18 21 26 27 26 19z m-429 -64 c13 -16 12 -17 -3 -4 -10 7
-18 15 -18 17 0 8 8 3 21 -13z m349 -16 c0 -2 -10 -12 -22 -23 l-23 -19 19 23
c18 21 26 27 26 19z m-269 -64 c13 -16 12 -17 -3 -4 -10 7 -18 15 -18 17 0 8
8 3 21 -13z m189 -16 c0 -2 -10 -12 -22 -23 l-23 -19 19 23 c18 21 26 27 26
19z m1500 0 c0 -2 -10 -12 -22 -23 l-23 -19 19 23 c18 21 26 27 26 19z m-1567
-61 l22 19 -19 -22 c-17 -20 -17 -23 -2 -38 23 -23 20 -32 -3 -11 -11 10 -25
15 -32 10 -8 -5 -10 -3 -5 5 5 7 0 22 -11 34 l-18 22 23 -19 c22 -19 22 -19
45 0z m1438 -3 c13 -16 12 -17 -3 -4 -10 7 -18 15 -18 17 0 8 8 3 21 -13z
m-2951 -13 c0 -5 -4 -10 -10 -10 -5 0 -10 5 -10 10 0 6 5 10 10 10 6 0 10 -4
10 -10z m2990 -20 c0 -5 -4 -10 -10 -10 -5 0 -10 5 -10 10 0 6 5 10 10 10 6 0
10 -4 10 -10z m-30 -24 c0 -2 -8 -10 -17 -17 -16 -13 -17 -12 -4 4 13 16 21
21 21 13z m-1540 -39 c0 -2 -10 -12 -22 -23 l-23 -19 19 23 c18 21 26 27 26
19z m1500 0 c0 -2 -10 -12 -22 -23 l-23 -19 19 23 c18 21 26 27 26 19z m-4490
-12 c0 -2 -10 -9 -22 -15 -22 -11 -22 -10 -4 4 21 17 26 19 26 11z m3201 -52
c13 -16 12 -17 -3 -4 -10 7 -18 15 -18 17 0 8 8 3 21 -13z m-3281 -16 c0 -2
-10 -12 -22 -23 l-23 -19 19 23 c18 21 26 27 26 19z m2990 0 c0 -2 -10 -12
-22 -23 l-23 -19 19 23 c18 21 26 27 26 19z m1500 0 c0 -2 -10 -12 -22 -23
l-23 -19 19 23 c18 21 26 27 26 19z m-1129 -64 c13 -16 12 -17 -3 -4 -17 13
-22 21 -14 21 2 0 10 -8 17 -17z m1504 -13 c3 -5 1 -10 -4 -10 -6 0 -11 5 -11
10 0 6 2 10 4 10 3 0 8 -4 11 -10z m-1955 -3 c0 -2 -10 -12 -22 -23 l-23 -19
19 23 c18 21 26 27 26 19z m1500 0 c0 -2 -10 -12 -22 -23 l-23 -19 19 23 c18
21 26 27 26 19z m-969 -64 c13 -16 12 -17 -3 -4 -17 13 -22 21 -14 21 2 0 10
-8 17 -17z m-611 -16 c0 -2 -10 -12 -22 -23 l-23 -19 19 23 c18 21 26 27 26
19z m1500 0 c0 -2 -10 -12 -22 -23 l-23 -19 19 23 c18 21 26 27 26 19z m625
-7 c3 -6 -1 -7 -9 -4 -18 7 -21 14 -7 14 6 0 13 -4 16 -10z m-1465 -25 c13
-14 21 -25 18 -25 -2 0 -15 11 -28 25 -13 14 -21 25 -18 25 2 0 15 -11 28 -25z
m-740 -48 c0 -2 -10 -12 -22 -23 l-23 -19 19 23 c18 21 26 27 26 19z m1500 0
c0 -2 -10 -12 -22 -23 l-23 -19 19 23 c18 21 26 27 26 19z m-1580 -80 c0 -2
-10 -12 -22 -23 l-23 -19 19 23 c18 21 26 27 26 19z m1500 0 c0 -2 -10 -12
-22 -23 l-23 -19 19 23 c18 21 26 27 26 19z m-5009 -54 c13 -16 12 -17 -3 -4
-17 13 -22 21 -14 21 2 0 10 -8 17 -17z m6034 -31 c-3 -3 -11 0 -18 7 -9 10
-8 11 6 5 10 -3 15 -9 12 -12z m-2605 5 c0 -2 -10 -12 -22 -23 l-23 -19 19 23
c18 21 26 27 26 19z m1500 0 c0 -2 -10 -12 -22 -23 l-23 -19 19 23 c18 21 26
27 26 19z m-4865 -35 c-3 -3 -11 0 -18 7 -9 10 -8 11 6 5 10 -3 15 -9 12 -12z
m3285 -45 c0 -2 -10 -12 -22 -23 l-23 -19 19 23 c18 21 26 27 26 19z m1500 0
c0 -2 -10 -12 -22 -23 l-23 -19 19 23 c18 21 26 27 26 19z m-4700 -37 c0 -5
-2 -10 -4 -10 -3 0 -8 5 -11 10 -3 6 -1 10 4 10 6 0 11 -4 11 -10z m3093 -63
c4 3 7 1 7 -5 0 -20 -15 -13 -46 21 l-29 32 31 -28 c17 -15 33 -24 37 -20z
m6000 0 c4 3 7 1 7 -5 0 -20 -15 -13 -46 21 l-29 32 31 -28 c17 -15 33 -24 37
-20z m-4473 20 c0 -2 -10 -12 -22 -23 l-23 -19 19 23 c18 21 26 27 26 19z
m-4530 -47 c0 -5 -4 -10 -10 -10 -5 0 -10 5 -10 10 0 6 5 10 10 10 6 0 10 -4
10 -10z m2950 -33 c0 -2 -10 -12 -22 -23 l-23 -19 19 23 c18 21 26 27 26 19z
m1500 0 c0 -2 -10 -12 -22 -23 l-23 -19 19 23 c18 21 26 27 26 19z m4500 0 c0
-2 -10 -12 -22 -23 l-23 -19 19 23 c18 21 26 27 26 19z m-6080 -80 c0 -2 -10
-12 -22 -23 l-23 -19 19 23 c18 21 26 27 26 19z m6000 0 c0 -2 -10 -12 -22
-23 l-23 -19 19 23 c18 21 26 27 26 19z m-6080 -80 c0 -2 -10 -12 -22 -23
l-23 -19 19 23 c18 21 26 27 26 19z m6000 0 c0 -2 -10 -12 -22 -23 l-23 -19
19 23 c18 21 26 27 26 19z m-8480 -112 c19 -19 32 -35 29 -35 -3 0 -20 16 -39
35 -19 19 -32 35 -29 35 3 0 20 -16 39 -35z m2400 32 c0 -2 -10 -12 -22 -23
l-23 -19 19 23 c18 21 26 27 26 19z m3600 -32 c19 -19 32 -35 29 -35 -3 0 -20
16 -39 35 -19 19 -32 35 -29 35 3 0 20 -16 39 -35z m2400 32 c0 -2 -10 -12
-22 -23 l-23 -19 19 23 c18 21 26 27 26 19z m-6080 -80 c0 -2 -10 -12 -22 -23
l-23 -19 19 23 c18 21 26 27 26 19z m6000 0 c0 -2 -10 -12 -22 -23 l-23 -19
19 23 c18 21 26 27 26 19z m-8225 -47 c10 -11 16 -20 13 -20 -3 0 -13 9 -23
20 -10 11 -16 20 -13 20 3 0 13 -9 23 -20z m6000 0 c10 -11 16 -20 13 -20 -3
0 -13 9 -23 20 -10 11 -16 20 -13 20 3 0 13 -9 23 -20z m-3855 -33 c0 -2 -10
-12 -22 -23 l-23 -19 19 23 c18 21 26 27 26 19z m6000 0 c0 -2 -10 -12 -22
-23 l-23 -19 19 23 c18 21 26 27 26 19z m-6080 -80 c0 -2 -10 -12 -22 -23
l-23 -19 19 23 c18 21 26 27 26 19z m6000 0 c0 -2 -10 -12 -22 -23 l-23 -19
19 23 c18 21 26 27 26 19z m-4902 -52 c-3 -3 -9 2 -12 12 -6 14 -5 15 5 6 7
-7 10 -15 7 -18z m-1178 -28 c0 -2 -10 -12 -22 -23 l-23 -19 19 23 c18 21 26
27 26 19z m1500 0 c0 -2 -10 -12 -22 -23 l-23 -19 19 23 c18 21 26 27 26 19z
m4500 0 c0 -2 -10 -12 -22 -23 l-23 -19 19 23 c18 21 26 27 26 19z m-7685
-106 c-6 -5 -25 10 -25 20 0 5 6 4 14 -3 8 -7 12 -15 11 -17z m1605 26 c0 -2
-10 -12 -22 -23 l-23 -19 19 23 c18 21 26 27 26 19z m4395 -26 c-6 -5 -25 10
-25 20 0 5 6 4 14 -3 8 -7 12 -15 11 -17z m1605 26 c0 -2 -10 -12 -22 -23
l-23 -19 19 23 c18 21 26 27 26 19z m-7550 -42 c-10 -12 -10 -18 0 -30 8 -9 8
-15 2 -15 -6 0 -12 6 -15 13 -3 9 -8 8 -23 -3 -18 -14 -18 -14 -5 3 13 16 13
20 0 28 -10 8 -9 9 8 4 12 -3 24 -1 28 5 3 5 9 10 12 10 3 0 0 -7 -7 -15z
m6000 0 c-10 -12 -10 -18 0 -30 8 -9 8 -15 2 -15 -6 0 -12 6 -15 13 -3 9 -8 8
-23 -3 -18 -14 -18 -14 -5 3 13 16 13 20 0 28 -10 8 -9 9 8 4 12 -3 24 -1 28
5 3 5 9 10 12 10 3 0 0 -7 -7 -15z m-3003 -12 c-4 -3 1 -16 10 -27 18 -21 18
-21 -4 -2 -25 21 -30 36 -11 36 6 0 8 -3 5 -7z m-1527 -26 c0 -2 -10 -12 -22
-23 l-23 -19 19 23 c18 21 26 27 26 19z m1500 0 c0 -2 -10 -12 -22 -23 l-23
-19 19 23 c18 21 26 27 26 19z m-3020 -21 c0 -2 -7 -7 -16 -10 -8 -3 -12 -2
-9 4 6 10 25 14 25 6z m6000 0 c0 -2 -7 -7 -16 -10 -8 -3 -12 -2 -9 4 6 10 25
14 25 6z m1470 -29 c0 -2 -10 -12 -22 -23 l-23 -19 19 23 c18 21 26 27 26 19z
m-6030 -30 c0 -2 -10 -12 -22 -23 l-23 -19 19 23 c18 21 26 27 26 19z m3215
-17 c10 -11 16 -20 13 -20 -3 0 -13 9 -23 20 -10 11 -16 20 -13 20 3 0 13 -9
23 -20z m-4827 -72 c2 -29 0 -38 -12 -38 -10 0 -16 9 -16 25 0 33 -18 32 -26
-2 -11 -43 47 -72 76 -38 14 17 40 20 40 4 0 -18 -43 -48 -68 -49 -28 0 -82
51 -82 77 0 34 30 64 58 61 23 -3 27 -8 30 -40z m6000 0 c2 -29 0 -38 -12 -38
-10 0 -16 9 -16 25 0 33 -18 32 -26 -2 -11 -43 47 -72 76 -38 16 19 40 19 40
1 0 -20 -39 -46 -68 -46 -28 0 -82 51 -82 77 0 34 30 64 58 61 23 -3 27 -8 30
-40z m-4468 9 c0 -2 -10 -12 -22 -23 l-23 -19 19 23 c18 21 26 27 26 19z
m3375 -17 c10 -11 16 -20 13 -20 -3 0 -13 9 -23 20 -10 11 -16 20 -13 20 3 0
13 -9 23 -20z m-3455 -63 c0 -2 -10 -12 -22 -23 l-23 -19 19 23 c18 21 26 27
26 19z m3535 -17 c10 -11 16 -20 13 -20 -3 0 -13 9 -23 20 -10 11 -16 20 -13
20 3 0 13 -9 23 -20z m-5080 -31 c25 -23 45 -45 45 -50 0 -18 -27 -8 -55 21
-29 31 -59 39 -71 19 -3 -6 10 -27 30 -48 34 -35 46 -61 28 -61 -4 0 -25 16
-45 35 -41 38 -61 44 -71 18 -6 -15 26 -61 59 -85 6 -5 6 -11 -1 -18 -13 -13
-94 63 -94 90 0 20 33 60 49 60 5 0 11 9 14 20 4 17 35 37 60 39 4 1 28 -18
52 -40z m6000 0 c25 -23 45 -45 45 -50 0 -18 -24 -8 -62 27 -37 33 -42 35 -56
20 -15 -15 -13 -19 21 -54 35 -35 47 -62 29 -62 -4 0 -25 16 -45 35 -41 38
-61 44 -71 19 -7 -18 4 -36 43 -72 18 -16 22 -25 14 -33 -14 -14 -93 65 -93
93 0 18 33 58 49 58 5 0 11 9 14 20 4 17 35 37 60 39 4 1 28 -18 52 -40z
m-6272 10 c26 -14 37 -29 36 -49 0 -9 -5 -6 -11 8 -14 27 -51 38 -82 24 -34
-15 -39 -48 -11 -80 20 -23 25 -25 49 -14 39 18 30 78 -10 70 -22 -4 -26 -39
-5 -46 10 -3 12 0 8 12 -4 9 -2 16 3 16 6 0 10 -9 10 -20 0 -26 -36 -27 -50
-1 -19 37 7 65 50 54 49 -13 45 -84 -6 -103 -67 -26 -114 62 -64 116 26 26 50
30 83 13z m6000 0 c26 -14 37 -29 36 -49 0 -9 -5 -6 -11 8 -14 27 -51 38 -82
24 -34 -15 -39 -48 -11 -80 20 -23 25 -25 49 -14 39 18 30 78 -10 70 -22 -4
-26 -39 -5 -46 10 -3 12 0 8 12 -4 9 -2 16 3 16 6 0 10 -9 10 -20 0 -26 -36
-27 -50 -1 -19 37 7 65 50 54 49 -13 45 -84 -6 -103 -67 -26 -114 62 -64 116
26 26 50 30 83 13z m-4263 -42 c0 -2 -10 -12 -22 -23 l-23 -19 19 23 c18 21
26 27 26 19z m3695 -17 c10 -11 16 -20 13 -20 -3 0 -13 9 -23 20 -10 11 -16
20 -13 20 3 0 13 -9 23 -20z m-3775 -63 c0 -2 -10 -12 -22 -23 l-23 -19 19 23
c18 21 26 27 26 19z m3855 -17 c10 -11 16 -20 13 -20 -3 0 -13 9 -23 20 -10
11 -16 20 -13 20 3 0 13 -9 23 -20z m-5422 -37 c48 -47 57 -63 35 -63 -16 0
-98 81 -98 97 0 22 14 15 63 -34z m6000 0 c48 -47 57 -63 35 -63 -16 0 -98 81
-98 97 0 22 14 15 63 -34z m-3130 8 c72 -28 137 -93 180 -180 27 -56 31 -74
32 -150 0 -74 -4 -94 -27 -141 -39 -79 -98 -137 -98 -97 0 6 13 46 30 87 32
81 37 139 18 204 -15 53 -58 116 -100 148 -109 83 -293 74 -379 -19 -84 -90
-93 -222 -21 -327 74 -108 252 -115 332 -14 35 45 40 148 10 196 -65 104 -230
66 -230 -53 0 -37 20 -72 47 -84 36 -17 58 0 58 45 0 43 24 66 53 48 37 -23
23 -93 -26 -128 -32 -25 -78 -25 -128 -2 -51 23 -74 55 -81 115 -10 87 29 154
112 192 80 37 166 19 230 -47 127 -130 86 -321 -89 -412 -43 -22 -64 -26 -136
-26 -72 0 -93 4 -135 26 -65 34 -109 79 -142 146 -37 76 -39 200 -4 286 70
175 298 262 494 187z m-2963 -30 c0 -4 -12 -21 -26 -36 l-25 -27 23 -25 c12
-13 31 -23 43 -21 19 3 20 9 13 48 -5 27 17 23 31 -5 19 -40 -1 -75 -44 -75
-24 0 -42 12 -84 54 -34 34 -49 56 -42 61 7 4 18 2 25 -4 9 -8 19 -4 36 14 23
25 50 33 50 16z m6000 0 c0 -4 -12 -21 -26 -36 l-25 -27 23 -25 c12 -13 31
-23 43 -21 19 3 20 9 13 48 -5 27 17 23 31 -5 19 -40 -1 -75 -44 -75 -24 0
-42 12 -84 54 -34 34 -49 56 -42 61 7 4 18 2 25 -4 9 -8 19 -4 36 14 23 25 50
33 50 16z m-4420 -4 c0 -2 -10 -12 -22 -23 l-23 -19 19 23 c18 21 26 27 26 19z
m-80 -80 c0 -2 -10 -12 -22 -23 l-23 -19 19 23 c18 21 26 27 26 19z m-1618
-47 c-10 -16 -8 -24 12 -47 35 -42 40 -67 16 -88 -24 -22 -39 -12 -22 15 15
25 17 21 -18 60 -35 39 -36 47 -14 79 21 29 46 12 26 -19z m6000 0 c-10 -16
-8 -24 12 -47 35 -42 40 -67 16 -88 -24 -22 -39 -12 -22 15 15 25 17 21 -18
60 -35 39 -36 47 -14 79 21 29 46 12 26 -19z m-4462 -33 c0 -2 -10 -12 -22
-23 l-23 -19 19 23 c18 21 26 27 26 19z m-1598 -104 c34 -33 49 -63 32 -63 -4
0 -24 16 -45 35 -45 40 -54 42 -68 17 -8 -15 -3 -25 24 -52 19 -19 35 -38 35
-42 0 -18 -28 -6 -55 22 -16 17 -37 30 -47 30 -29 0 -22 -42 12 -75 28 -27 40
-55 22 -55 -4 0 -25 17 -46 39 -31 32 -37 44 -34 72 2 23 10 37 24 43 11 5 28
22 37 38 23 41 61 38 109 -9z m6000 0 c34 -33 49 -63 32 -63 -4 0 -24 16 -45
35 -45 40 -54 42 -68 17 -8 -15 -3 -25 24 -52 19 -19 35 -38 35 -42 0 -18 -28
-6 -55 22 -16 17 -37 30 -47 30 -29 0 -22 -42 12 -75 28 -27 40 -55 22 -55 -4
0 -25 17 -46 39 -31 32 -37 44 -34 72 2 23 10 37 24 43 11 5 28 22 37 38 23
41 61 38 109 -9z m-4482 24 c0 -2 -10 -12 -22 -23 l-23 -19 19 23 c18 21 26
27 26 19z m-80 -80 c0 -2 -10 -12 -22 -23 l-23 -19 19 23 c18 21 26 27 26 19z
m-80 -80 c0 -2 -10 -12 -22 -23 l-23 -19 19 23 c18 21 26 27 26 19z m4465 -38
c19 -17 35 -37 35 -45 0 -20 -14 -17 -36 7 -45 50 -94 49 -94 -2 0 -34 32 -53
63 -37 18 9 37 3 37 -11 0 -14 -51 -31 -75 -25 -53 13 -74 99 -33 128 34 24
63 19 103 -15z m-4545 -42 c0 -2 -10 -12 -22 -23 l-23 -19 19 23 c18 21 26 27
26 19z m-989 -64 c13 -16 12 -17 -3 -4 -17 13 -22 21 -14 21 2 0 10 -8 17 -17z
m5367 -31 c2 -33 0 -42 -12 -42 -10 0 -16 9 -16 25 0 28 -15 33 -24 9 -8 -22
20 -64 42 -64 10 0 29 11 42 25 25 26 50 33 50 13 0 -19 -62 -68 -85 -68 -30
0 -71 34 -79 65 -8 31 8 63 37 75 34 13 42 7 45 -38z m-4458 15 c0 -2 -10 -12
-22 -23 l-23 -19 19 23 c18 21 26 27 26 19z m-829 -64 c13 -16 12 -17 -3 -4
-10 7 -18 15 -18 17 0 8 8 3 21 -13z m749 -16 c0 -2 -10 -12 -22 -23 l-23 -19
19 23 c18 21 26 27 26 19z m4404 -24 c-4 -22 1 -34 25 -57 30 -29 41 -56 22
-56 -5 0 -25 18 -45 40 -44 49 -49 100 -10 100 9 0 12 -9 8 -27z m-76 -67 c41
-42 62 -72 62 -88 0 -29 -34 -68 -58 -68 -30 0 -79 37 -86 64 -8 31 8 66 29
66 18 0 18 -5 4 -31 -22 -41 37 -89 69 -57 22 22 13 44 -43 103 -52 55 -65 75
-47 75 5 0 37 -29 70 -64z m-4997 27 c13 -16 12 -17 -3 -4 -17 13 -22 21 -14
21 2 0 10 -8 17 -17z m589 -16 c0 -2 -10 -12 -22 -23 l-23 -19 19 23 c18 21
26 27 26 19z m-509 -64 c13 -16 12 -17 -3 -4 -17 13 -22 21 -14 21 2 0 10 -8
17 -17z m429 -16 c0 -2 -10 -12 -22 -23 l-23 -19 19 23 c18 21 26 27 26 19z
m-349 -64 c13 -16 12 -17 -3 -4 -17 13 -22 21 -14 21 2 0 10 -8 17 -17z m269
-16 c0 -2 -10 -12 -22 -23 l-23 -19 19 23 c18 21 26 27 26 19z m1500 0 c0 -2
-10 -12 -22 -23 l-23 -19 19 23 c18 21 26 27 26 19z m-1647 -106 c-2 -3 -18
10 -36 29 l-32 34 36 -30 c20 -16 34 -31 32 -33z m47 4 c-20 -21 -21 -27 -9
-42 13 -17 13 -17 -6 -3 -11 8 -22 15 -24 17 -4 2 51 52 58 53 3 0 -6 -11 -19
-25z m2986 -19 c15 5 16 4 5 -4 -13 -9 -13 -13 0 -29 13 -17 13 -17 -4 -4 -15
12 -20 12 -33 -5 -14 -18 -14 -18 -4 4 9 18 8 27 -2 40 -11 15 -11 15 3 4 9
-7 25 -10 35 -6z m1494 4 c0 -5 -4 -10 -10 -10 -5 0 -10 5 -10 10 0 6 5 10 10
10 6 0 10 -4 10 -10z m-3010 -15 c0 -8 -4 -15 -10 -15 -5 0 -7 7 -4 15 4 8 8
15 10 15 2 0 4 -7 4 -15z m-30 -28 c0 -2 -10 -12 -22 -23 l-23 -19 19 23 c18
21 26 27 26 19z m2980 -21 c0 -2 -7 -7 -16 -10 -8 -3 -12 -2 -9 4 6 10 25 14
25 6z m-3060 -59 c0 -2 -10 -12 -22 -23 l-23 -19 19 23 c18 21 26 27 26 19z
m-80 -80 c0 -2 -10 -12 -22 -23 l-23 -19 19 23 c18 21 26 27 26 19z m2035
-157 c10 -11 16 -20 13 -20 -3 0 -13 9 -23 20 -10 11 -16 20 -13 20 3 0 13 -9
23 -20z"/>
<path d="M2747 5265 c-131 -36 -234 -121 -295 -244 l-37 -75 0 -1435 0 -1436
22 -55 c46 -112 165 -222 282 -262 25 -8 159 -13 434 -16 436 -3 471 0 565 55
65 38 145 120 176 181 29 57 56 158 56 212 0 30 -4 37 -30 47 -37 14 -56 57
-41 90 6 13 17 23 26 23 18 0 19 -5 4 -31 -8 -16 -7 -26 6 -45 24 -38 35 -29
35 31 0 43 -4 56 -19 64 -22 12 -55 60 -47 69 4 3 20 -7 36 -23 l30 -29 0
1235 c0 1345 1 1314 -57 1421 -61 113 -187 205 -312 228 -83 15 -774 11 -834
-5z m974 -142 c13 -16 12 -17 -3 -4 -10 7 -18 15 -18 17 0 8 8 3 21 -13z m45
-32 c0 -11 -5 -17 -13 -14 -17 6 -17 20 0 26 6 3 12 6 12 6 1 1 1 -7 1 -18z
m-36 -25 c0 -2 -8 -10 -17 -17 -16 -13 -17 -12 -4 4 13 16 21 21 21 13z m-40
-39 c0 -2 -10 -12 -22 -23 l-23 -19 19 23 c18 21 26 27 26 19z m174 -42 c9
-14 15 -25 13 -25 -2 0 -13 11 -25 25 -12 14 -18 25 -13 25 5 0 16 -11 25 -25z
m56 -57 c0 -5 -7 -3 -15 6 -8 8 -15 18 -15 22 0 3 7 1 15 -6 8 -7 15 -17 15
-22z m-310 19 c0 -2 -10 -12 -22 -23 l-23 -19 19 23 c18 21 26 27 26 19z
m-1129 -64 c13 -16 12 -17 -3 -4 -17 13 -22 21 -14 21 2 0 10 -8 17 -17z
m1049 -16 c0 -2 -10 -12 -22 -23 l-23 -19 19 23 c18 21 26 27 26 19z m-969
-64 c13 -16 12 -17 -3 -4 -17 13 -22 21 -14 21 2 0 10 -8 17 -17z m889 -16 c0
-2 -10 -12 -22 -23 l-23 -19 19 23 c18 21 26 27 26 19z m-840 -32 c13 -14 21
-25 18 -25 -2 0 -15 11 -28 25 -13 14 -21 25 -18 25 2 0 15 -11 28 -25z m760
-48 c0 -2 -10 -12 -22 -23 l-23 -19 19 23 c18 21 26 27 26 19z m-80 -80 c0 -2
-10 -12 -22 -23 l-23 -19 19 23 c18 21 26 27 26 19z m-80 -80 c0 -2 -10 -12
-22 -23 l-23 -19 19 23 c18 21 26 27 26 19z m-80 -80 c0 -2 -10 -12 -22 -23
l-23 -19 19 23 c18 21 26 27 26 19z m-80 -80 c0 -2 -10 -12 -22 -23 l-23 -19
19 23 c18 21 26 27 26 19z m-80 -80 c0 -2 -10 -12 -22 -23 l-23 -19 19 23 c18
21 26 27 26 19z m-80 -80 c0 -2 -10 -12 -22 -23 l-23 -19 19 23 c18 21 26 27
26 19z m-80 -80 c0 -2 -10 -12 -22 -23 l-23 -19 19 23 c18 21 26 27 26 19z
m-80 -80 c0 -2 -10 -12 -22 -23 l-23 -19 19 23 c18 21 26 27 26 19z m-80 -80
c0 -2 -10 -12 -22 -23 l-23 -19 19 23 c18 21 26 27 26 19z m-80 -80 c0 -2 -10
-12 -22 -23 l-23 -19 19 23 c18 21 26 27 26 19z m-77 -80 c-15 -18 -39 -42
-53 -52 -14 -10 -3 5 25 34 56 58 71 68 28 18z m1392 -337 c10 -11 16 -20 13
-20 -3 0 -13 9 -23 20 -10 11 -16 20 -13 20 3 0 13 -9 23 -20z m-115 -1380 c0
-5 -4 -10 -10 -10 -5 0 -10 5 -10 10 0 6 5 10 10 10 6 0 10 -4 10 -10z m101
-107 c13 -16 12 -17 -3 -4 -17 13 -22 21 -14 21 2 0 10 -8 17 -17z"/>
<path d="M0 445 l0 -445 8000 0 8000 0 0 445 0 445 -8000 0 -8000 0 0 -445z
m674 251 c131 -77 184 -264 114 -406 -26 -52 -63 -89 -76 -75 -4 3 6 41 21 83
15 42 27 95 27 118 0 81 -74 183 -156 215 -44 16 -136 14 -174 -6 -88 -46
-136 -149 -111 -239 32 -117 145 -177 241 -128 103 52 107 208 5 242 -91 30
-165 -82 -95 -145 16 -15 22 -16 35 -5 9 7 14 18 12 24 -8 20 12 56 31 56 47
0 54 -77 11 -116 -27 -24 -99 -23 -137 2 -15 10 -29 18 -32 17 -3 -1 -6 6 -7
15 -1 9 -5 40 -9 69 -5 43 -3 58 17 92 52 93 194 108 266 30 41 -45 66 -117
60 -172 -15 -120 -116 -207 -241 -207 -155 0 -256 108 -256 274 0 186 125 300
321 293 72 -2 93 -7 133 -31z m574 -181 c2 -72 -2 -146 -7 -166 -17 -56 -52
-82 -111 -83 -43 -1 -54 3 -82 32 -31 30 -33 37 -33 100 0 51 5 73 20 94 37
49 108 66 120 28 7 -23 -10 -50 -30 -50 -28 0 -58 -36 -57 -69 2 -65 61 -93
102 -49 18 20 20 35 20 153 0 73 3 135 7 139 4 4 16 6 28 4 19 -3 20 -11 23
-133z m1887 100 c0 -27 -3 -30 -30 -30 -21 0 -31 5 -33 18 -6 33 6 49 35 45
24 -3 28 -8 28 -33z m-285 -46 c0 -28 0 -28 73 -31 l72 -3 0 -30 0 -30 -72 -3
-73 -3 0 -47 c0 -87 62 -127 86 -54 15 46 29 58 50 41 21 -17 14 -82 -13 -111
-44 -49 -122 -46 -154 6 -16 26 -19 51 -19 162 0 72 3 133 6 136 3 3 14 4 25
1 13 -4 19 -14 19 -34z m-1405 -59 c0 -16 -8 -29 -24 -36 -36 -18 -41 -32 -41
-115 0 -80 -13 -108 -45 -95 -12 4 -15 24 -15 94 0 110 11 145 53 166 45 22
72 17 72 -14z m251 5 c35 -23 29 -54 -21 -109 -38 -40 -48 -46 -60 -36 -21 17
-19 42 5 68 25 26 25 32 2 32 -48 0 -72 -81 -36 -121 13 -14 31 -19 75 -19 73
0 89 -6 89 -35 0 -29 -16 -35 -96 -35 -59 0 -67 3 -101 34 -33 30 -37 39 -41
92 -3 50 0 64 20 94 13 19 35 41 48 48 29 15 82 9 116 -13z m298 -2 c35 -25
46 -63 46 -160 0 -65 -3 -85 -15 -89 -31 -12 -43 14 -44 93 -1 56 -6 81 -18
95 -22 24 -58 23 -83 -4 -39 -42 -17 -110 40 -122 27 -5 31 -10 28 -33 -2 -21
-9 -29 -28 -31 -36 -4 -89 33 -106 73 -54 131 72 257 180 178z m274 12 c19
-14 24 -14 47 1 38 25 92 9 123 -35 20 -32 22 -45 20 -130 -3 -95 -3 -96 -28
-96 -25 0 -25 2 -30 94 -4 75 -9 96 -22 105 -13 8 -23 8 -35 0 -15 -9 -19 -28
-21 -103 -2 -73 -6 -93 -19 -98 -27 -10 -40 23 -42 104 -2 79 -11 103 -40 103
-32 0 -41 -22 -41 -106 0 -85 -12 -113 -45 -100 -12 4 -15 25 -15 100 0 52 5
106 11 119 23 50 94 72 137 42z m467 -20 c0 -26 -4 -30 -30 -33 -37 -5 -45
-16 -45 -70 0 -48 -19 -100 -43 -120 -8 -7 -31 -16 -50 -19 -29 -4 -37 -2 -47
16 -14 28 2 51 36 51 31 0 44 27 44 92 0 81 36 120 105 115 26 -2 30 -6 30
-32z m393 -103 c2 -116 1 -133 -14 -139 -32 -12 -44 24 -44 131 0 125 6 148
34 144 20 -3 21 -9 24 -136z m225 123 c26 -13 31 -13 50 0 46 32 111 7 136
-53 7 -16 11 -65 9 -118 -3 -88 -3 -89 -28 -89 -24 0 -25 2 -30 90 -5 97 -11
115 -39 115 -33 0 -41 -22 -41 -112 0 -71 -3 -90 -16 -95 -27 -10 -38 16 -44
104 -4 67 -9 88 -22 97 -13 8 -23 8 -35 0 -15 -9 -19 -28 -21 -97 -3 -89 -15
-116 -48 -103 -13 5 -15 22 -12 112 3 105 3 106 36 135 36 32 63 36 105 14z
m455 -5 c19 -12 32 -28 32 -40 0 -31 -71 -111 -95 -108 -28 4 -30 33 -5 65 20
26 21 28 4 32 -21 4 -64 -42 -64 -68 0 -10 9 -30 21 -45 15 -20 30 -26 57 -26
48 0 65 -12 60 -41 -3 -21 -9 -24 -48 -27 -87 -7 -140 46 -140 138 0 62 22
103 64 124 42 21 75 20 114 -4z m373 -19 c16 -16 29 -39 29 -50 0 -17 -6 -21
-35 -21 -22 0 -38 6 -41 15 -9 24 -43 29 -65 9 -13 -12 -19 -30 -19 -60 0 -66
42 -96 77 -54 11 12 30 20 50 20 27 0 33 -4 33 -21 0 -11 -13 -34 -29 -50 -24
-23 -38 -29 -75 -29 -62 0 -94 17 -117 62 -23 46 -24 85 -3 138 20 49 53 69
117 70 41 0 53 -5 78 -29z m256 12 c72 -48 69 -199 -6 -237 -34 -18 -97 -21
-136 -6 -29 11 -64 78 -65 122 0 44 30 107 59 123 36 20 116 19 148 -2z m288
3 c17 -12 22 -12 39 0 32 22 99 18 122 -7 16 -18 20 -40 22 -135 l4 -114 -41
0 -40 0 -3 96 c-2 79 -6 99 -20 108 -14 8 -21 7 -34 -6 -14 -13 -17 -35 -16
-107 l1 -91 -40 0 -39 0 0 94 c0 107 -11 128 -55 108 -24 -11 -25 -15 -25
-107 l0 -95 -40 0 -40 0 0 130 0 131 50 -2 c27 -2 53 0 57 4 12 12 79 7 98 -7z
m8065 -82 c0 -81 -1 -84 -23 -84 -21 0 -22 3 -19 70 3 65 2 70 -17 70 -35 0
-24 28 12 32 17 2 35 2 40 0 4 -2 7 -41 7 -88z m698 73 c20 -16 14 -56 -14
-93 l-26 -34 31 0 c21 0 31 -5 31 -15 0 -12 -13 -15 -60 -15 -72 0 -75 9 -25
66 36 40 46 74 21 74 -8 0 -16 -7 -20 -15 -9 -24 -36 -18 -36 8 0 39 60 54 98
24z m1352 -67 c0 -83 -1 -90 -20 -90 -19 0 -20 7 -20 90 0 83 1 90 20 90 19 0
20 -7 20 -90z m60 75 c0 -8 -9 -15 -20 -15 -11 0 -20 7 -20 15 0 8 9 15 20 15
11 0 20 -7 20 -15z m660 -74 c0 -70 -3 -90 -15 -95 -8 -3 -15 -2 -15 3 0 4
-12 6 -27 4 -40 -5 -55 9 -59 56 -3 47 14 71 52 71 19 0 24 5 24 25 0 18 5 25
20 25 19 0 20 -7 20 -89z m-3102 -6 c0 -81 -1 -85 -21 -85 -21 0 -22 4 -22 85
-1 81 1 85 21 85 21 0 22 -4 22 -85z m142 65 c25 -25 27 -95 4 -128 -12 -18
-25 -22 -70 -22 l-54 0 0 85 0 85 50 0 c37 0 55 -5 70 -20z m349 -2 c5 -13 5
-29 1 -37 -4 -8 -3 -25 3 -38 7 -16 7 -30 -1 -49 -11 -22 -17 -25 -54 -22 -25
2 -45 10 -52 20 -15 24 0 34 28 19 13 -8 29 -10 35 -7 19 12 12 35 -14 42 -29
7 -34 34 -6 34 11 0 23 5 26 10 9 15 -24 25 -38 11 -15 -15 -37 -14 -37 2 0
23 23 37 62 37 31 0 40 -5 47 -22z m131 7 c0 -9 -9 -15 -24 -15 -13 0 -28 -6
-34 -13 -8 -9 -3 -12 21 -12 71 0 70 -106 -1 -113 -41 -4 -60 10 -68 54 -13
69 15 114 72 114 24 0 34 -5 34 -15z m150 0 c0 -10 -11 -15 -35 -15 -43 0 -46
-15 -5 -23 34 -7 49 -44 34 -86 -7 -21 -17 -27 -45 -29 -35 -3 -69 16 -69 39
0 13 34 11 47 -2 15 -15 33 -3 33 21 0 24 -18 36 -33 21 -25 -25 -37 -12 -37
39 l0 50 55 0 c42 0 55 -3 55 -15z m125 0 c0 -5 -13 -12 -29 -15 -16 -3 -31
-10 -33 -16 -2 -7 5 -10 20 -7 45 9 73 -49 47 -98 -13 -24 -72 -26 -94 -3 -22
22 -21 111 1 136 18 20 88 22 88 3z m275 -4 c14 -27 13 -124 -2 -139 -18 -18
-88 -16 -88 2 0 8 12 16 27 18 38 4 42 28 4 28 -36 0 -56 29 -46 68 8 33 21
42 62 42 22 0 36 -6 43 -19z m150 4 c0 -10 -11 -15 -35 -15 -19 0 -35 -4 -35
-10 0 -5 9 -10 19 -10 29 0 51 -27 51 -64 0 -41 -15 -56 -56 -56 -31 0 -64 21
-64 41 0 12 37 12 45 -1 12 -20 35 -10 35 14 0 27 -18 45 -29 29 -3 -6 -14
-10 -23 -10 -15 0 -18 9 -18 49 l0 48 55 0 c42 0 55 -3 55 -15z m119 6 c22
-14 27 -106 7 -136 -23 -36 -103 -36 -90 0 3 7 14 11 26 7 11 -3 24 1 29 9 14
22 11 27 -16 21 -47 -8 -71 40 -45 89 11 20 63 26 89 10z m231 -1 c29 -16 45
-75 29 -112 -24 -58 -121 -70 -149 -18 -18 34 -12 97 12 120 23 22 77 27 108
10z m226 2 c6 -4 13 -15 17 -24 5 -14 1 -18 -18 -18 -14 0 -25 5 -25 10 0 6
-9 10 -20 10 -33 0 -23 -28 15 -40 33 -11 55 -35 55 -59 0 -21 -33 -41 -68
-41 -42 0 -56 7 -65 33 -9 25 22 35 39 13 7 -10 20 -16 30 -14 34 6 24 26 -21
43 -41 16 -45 21 -45 51 0 18 6 35 13 37 19 8 81 8 93 -1z m135 -42 c14 -8 19
-21 19 -55 0 -34 -5 -47 -19 -55 -68 -36 -123 22 -89 95 12 27 52 34 89 15z
m147 -7 c5 -10 10 -39 11 -65 2 -44 1 -48 -21 -48 -21 0 -23 4 -22 37 3 45 -4
63 -22 63 -10 0 -14 -14 -14 -50 0 -43 -3 -50 -20 -50 -18 0 -20 7 -20 65 l0
65 50 0 c37 0 51 -4 58 -17z m126 8 c3 -4 8 -34 11 -64 l5 -56 -57 2 c-52 2
-58 4 -61 25 -5 30 14 52 44 52 13 0 24 4 24 10 0 5 -13 7 -30 4 -22 -5 -30
-3 -30 8 0 8 3 18 7 21 9 10 81 8 87 -2z m136 -56 c0 -58 -2 -65 -20 -65 -18
0 -20 7 -20 65 0 58 2 65 20 65 18 0 20 -7 20 -65z m118 53 c7 -7 12 -25 12
-40 0 -25 -3 -28 -36 -28 -22 0 -33 -4 -29 -11 4 -5 19 -9 33 -7 19 2 27 -2
27 -12 0 -19 -56 -26 -85 -10 -22 12 -28 67 -10 101 12 22 68 27 88 7z m134
-1 c4 -7 8 -36 8 -64 0 -46 -3 -53 -20 -53 -17 0 -20 7 -20 50 0 38 -4 50 -15
50 -11 0 -15 -12 -15 -50 0 -43 -3 -50 -20 -50 -18 0 -20 7 -20 64 l0 63 47 1
c27 1 51 -4 55 -11z m126 1 c5 -7 12 -36 13 -65 l4 -52 -55 2 c-49 2 -55 4
-58 25 -5 30 14 52 44 52 13 0 24 4 24 9 0 6 -16 7 -35 4 -36 -6 -44 4 -23 25
16 16 73 15 86 0z m139 0 c8 -6 13 -33 13 -64 0 -49 -2 -54 -22 -54 -21 0 -23
5 -23 47 0 36 -4 48 -15 48 -11 0 -16 -13 -18 -47 -3 -40 -6 -48 -23 -48 -17
0 -19 7 -19 64 l0 64 47 0 c27 0 54 -4 60 -10z m261 0 c5 -7 12 -36 14 -65 l5
-52 -56 2 c-54 2 -56 3 -59 31 -4 31 10 46 46 46 12 0 22 4 22 9 0 6 -16 7
-35 4 -36 -6 -44 4 -23 25 16 16 73 15 86 0z m-11743 -173 c0 -27 -3 -30 -30
-30 -21 0 -31 5 -33 18 -6 33 6 49 35 45 24 -3 28 -8 28 -33z"/>
<path d="M4330 450 c-38 -38 -14 -130 34 -130 42 0 62 102 28 133 -24 22 -38
21 -62 -3z"/>
<path d="M15484 426 c-7 -29 1 -46 22 -46 9 0 14 11 14 35 0 41 -26 49 -36 11z"/>
<path d="M12520 435 c0 -46 3 -55 18 -55 27 0 42 20 42 55 0 35 -15 55 -42 55
-15 0 -18 -9 -18 -55z"/>
<path d="M13015 430 c-9 -15 4 -50 20 -50 11 0 25 20 25 35 0 11 -39 24 -45
15z"/>
<path d="M13301 431 c-17 -11 -10 -46 9 -46 17 0 26 33 13 46 -4 4 -14 4 -22
0z"/>
<path d="M13566 474 c-8 -20 1 -34 20 -34 8 0 14 10 14 25 0 28 -24 34 -34 9z"/>
<path d="M13842 468 c2 -12 10 -23 18 -23 22 0 19 39 -3 43 -15 3 -18 -1 -15
-20z"/>
<path d="M14036 481 c-39 -43 7 -129 61 -115 32 9 57 67 42 96 -7 13 -17 26
-23 30 -21 14 -63 8 -80 -11z m72 -3 c7 -7 12 -16 12 -20 0 -13 -28 -9 -32 4
-7 19 -28 -1 -28 -27 0 -28 17 -42 33 -26 15 15 27 14 27 -4 0 -20 -46 -30
-65 -15 -18 15 -20 71 -3 88 7 7 19 12 28 12 9 0 21 -5 28 -12z"/>
<path d="M14434 436 c-9 -23 0 -51 17 -54 17 -3 28 21 21 51 -4 21 -30 23 -38
3z"/>
<path d="M14707 403 c-12 -11 -8 -23 7 -23 8 0 16 7 20 15 5 15 -14 21 -27 8z"/>
<path d="M14960 440 c0 -5 7 -10 15 -10 8 0 15 5 15 10 0 6 -7 10 -15 10 -8 0
-15 -4 -15 -10z"/>
<path d="M15227 403 c-12 -11 -8 -23 8 -23 8 0 15 7 15 15 0 16 -12 20 -23 8z"/>
<path d="M15627 403 c-12 -11 -8 -23 8 -23 8 0 15 7 15 15 0 16 -12 20 -23 8z"/>
</g>
</svg>
