<?xml version="1.0" standalone="no"?>
<!DOCTYPE svg PUBLIC "-//W3C//DTD SVG 20010904//EN"
 "http://www.w3.org/TR/2001/REC-SVG-20010904/DTD/svg10.dtd">
<svg version="1.0" xmlns="http://www.w3.org/2000/svg"
 width="225.000000pt" height="225.000000pt" viewBox="0 0 225.000000 225.000000"
 preserveAspectRatio="xMidYMid meet">

<g transform="translate(0.000000,225.000000) scale(0.100000,-0.100000)"
fill="#000000" stroke="none">
<path d="M1022 1567 c-213 -78 -180 -416 42 -435 125 -10 217 68 233 197 18
156 -135 288 -275 238z"/>
<path d="M1565 1466 c-39 -18 -80 -62 -99 -108 -39 -91 1 -211 83 -255 76 -40
150 -26 208 40 69 79 69 195 0 274 -52 60 -126 78 -192 49z"/>
<path d="M495 1451 c-68 -42 -96 -94 -96 -177 0 -178 185 -264 300 -139 44 48
56 88 49 170 -5 60 -38 113 -92 146 -41 25 -121 25 -161 0z"/>
<path d="M1010 1099 c-118 -23 -246 -126 -300 -241 -27 -59 -54 -174 -43 -190
2 -5 197 -8 433 -8 236 0 431 3 433 8 3 4 1 34 -4 67 -39 246 -275 412 -519
364z"/>
<path d="M499 1047 c-148 -42 -260 -177 -276 -334 l-6 -53 194 0 194 0 12 74
c14 85 55 182 103 241 l32 40 -41 18 c-54 24 -154 30 -212 14z"/>
<path d="M1513 1039 c-29 -11 -53 -25 -53 -30 0 -6 13 -27 30 -47 41 -52 78
-141 92 -223 l12 -69 208 0 c233 0 216 -7 197 82 -26 124 -126 247 -234 287
-74 28 -180 27 -252 0z"/>
</g>
</svg>
