<?xml version="1.0" standalone="no"?>
<!DOCTYPE svg PUBLIC "-//W3C//DTD SVG 20010904//EN"
 "http://www.w3.org/TR/2001/REC-SVG-20010904/DTD/svg10.dtd">
<svg version="1.0" xmlns="http://www.w3.org/2000/svg"
 width="216.000000pt" height="233.000000pt" viewBox="0 0 216.000000 233.000000"
 preserveAspectRatio="xMidYMid meet">

<g transform="translate(0.000000,233.000000) scale(0.100000,-0.100000)"
fill="#000000" stroke="none">
<path d="M1011 1734 c-38 -31 -38 -38 -6 -76 14 -17 31 -50 37 -74 10 -38 16
-44 38 -44 22 0 28 6 38 44 6 24 23 57 37 74 32 38 32 45 -6 76 -42 35 -96 35
-138 0z"/>
<path d="M821 1672 c-37 -20 -71 -72 -71 -109 0 -16 11 -27 37 -39 20 -10 50
-37 66 -61 l31 -43 17 29 c19 31 85 81 106 81 20 0 15 61 -7 98 -36 58 -116
78 -179 44z"/>
<path d="M1203 1670 c-37 -22 -58 -53 -68 -96 -6 -30 -3 -33 40 -54 26 -13 59
-40 75 -61 l28 -39 26 40 c14 22 44 49 66 60 47 24 52 53 20 105 -38 62 -126
83 -187 45z"/>
<path d="M534 1630 c-11 -4 -33 -22 -47 -40 -39 -46 -38 -108 4 -152 19 -21
32 -29 35 -21 26 62 98 123 145 123 34 0 36 8 8 44 -38 48 -95 67 -145 46z"/>
<path d="M1522 1623 c-27 -13 -62 -56 -62 -76 0 -3 18 -7 40 -11 46 -7 115
-68 126 -110 6 -24 7 -24 28 -10 45 29 60 108 31 163 -15 31 -69 61 -107 61
-12 0 -38 -8 -56 -17z"/>
<path d="M1652 1388 c-7 -7 -12 -22 -12 -33 0 -12 -11 -44 -25 -71 -24 -46
-24 -50 -8 -59 10 -5 39 -31 65 -57 26 -26 53 -46 60 -44 7 3 25 7 41 10 25 6
27 10 27 59 -1 68 -27 124 -80 170 -48 41 -51 42 -68 25z"/>
<path d="M434 1358 c-48 -42 -74 -99 -74 -164 0 -45 3 -52 23 -58 44 -12 60
-5 114 44 30 28 59 50 65 50 5 0 0 15 -12 34 -11 19 -24 54 -28 78 -10 57 -36
61 -88 16z"/>
<path d="M851 1258 c-7 -11 -9 -23 -4 -27 4 -4 26 -20 48 -36 36 -25 38 -26
18 -4 -12 13 -28 39 -35 56 -13 31 -14 31 -27 11z"/>
<path d="M1281 1248 c-6 -18 -21 -43 -34 -56 -17 -19 -11 -17 26 9 52 36 52
36 33 62 -13 16 -15 15 -25 -15z"/>
<path d="M0 85 l0 -85 1080 0 1080 0 0 85 0 85 -1080 0 -1080 0 0 -85z m218
13 c14 5 15 4 2 -10 -9 -10 -17 -12 -21 -6 -4 6 -9 5 -12 -3 -3 -8 -4 -4 -4 8
1 14 5 19 10 14 5 -5 17 -7 25 -3z m78 3 c-18 -7 -18 -8 -3 -14 9 -3 17 -11
17 -16 0 -14 -29 -21 -36 -9 -4 6 -3 8 4 4 6 -3 13 -2 16 3 3 5 -1 11 -9 15
-23 8 -18 26 8 25 20 0 20 -1 3 -8z m31 -28 c-3 -10 -5 -4 -5 12 0 17 2 24 5
18 2 -7 2 -21 0 -30z m112 21 c4 3 7 -3 7 -13 0 -10 -6 -18 -13 -18 -8 0 -13
11 -12 26 0 14 3 20 6 13 2 -6 8 -10 12 -8z m-41 -5 c-9 -6 -8 -12 3 -25 13
-16 12 -16 -8 -6 -14 8 -24 9 -28 2 -9 -15 -25 -2 -25 20 0 14 7 18 35 17 19
-1 29 -4 23 -8z m1387 -8 c3 -5 1 -12 -5 -16 -5 -3 -10 1 -10 9 0 18 6 21 15
7z m213 -4 c6 -5 12 -4 12 0 0 5 18 8 39 8 22 0 37 -3 34 -7 -2 -5 -8 -6 -13
-3 -4 3 -11 -1 -14 -7 -5 -10 -7 -10 -12 -1 -4 9 -11 10 -25 3 -13 -7 -25 -7
-38 0 -14 7 -21 6 -24 -3 -2 -6 -8 -8 -13 -4 -19 18 28 30 54 14z m-1874 -13
c3 -8 2 -12 -4 -9 -6 3 -10 10 -10 16 0 14 7 11 14 -7z m126 12 c0 -2 -8 -10
-17 -17 -16 -13 -17 -12 -4 4 13 16 21 21 21 13z m1364 -4 c3 -5 -1 -9 -9 -9
-8 0 -15 4 -15 9 0 4 4 8 9 8 6 0 12 -4 15 -8z m106 -2 c0 -5 -5 -10 -11 -10
-5 0 -7 5 -4 10 3 6 8 10 11 10 2 0 4 -4 4 -10z m35 0 c3 -5 1 -10 -4 -10 -6
0 -11 5 -11 10 0 6 2 10 4 10 3 0 8 -4 11 -10z m95 0 c0 -5 -4 -10 -10 -10 -5
0 -10 5 -10 10 0 6 5 10 10 10 6 0 10 -4 10 -10z m40 0 c0 -5 -4 -10 -10 -10
-5 0 -10 5 -10 10 0 6 5 10 10 10 6 0 10 -4 10 -10z"/>
<path d="M350 74 c0 -8 5 -12 10 -9 6 3 10 10 10 16 0 5 -4 9 -10 9 -5 0 -10
-7 -10 -16z"/>
</g>
</svg>
