<?xml version="1.0" standalone="no"?>
<!DOCTYPE svg PUBLIC "-//W3C//DTD SVG 20010904//EN"
 "http://www.w3.org/TR/2001/REC-SVG-20010904/DTD/svg10.dtd">
<svg version="1.0" xmlns="http://www.w3.org/2000/svg"
 width="36.000000pt" height="36.000000pt" viewBox="0 0 36.000000 36.000000"
 preserveAspectRatio="xMidYMid meet">

<g transform="translate(0.000000,36.000000) scale(0.100000,-0.100000)"
fill="#000000" stroke="none">
<path d="M157 299 c-24 -14 -43 -54 -56 -121 -9 -41 -19 -61 -37 -72 -35 -24
-34 -83 2 -96 26 -10 124 -14 124 -5 0 3 -11 28 -25 57 -26 53 -28 70 -5 43 7
-8 20 -15 29 -15 26 0 41 -21 41 -57 0 -35 10 -39 58 -27 28 8 29 38 0 58 -18
13 -22 28 -28 105 -9 124 -41 166 -103 130z m61 -49 c10 -17 10 -20 -4 -20 -8
0 -12 -5 -9 -10 4 -6 11 -8 16 -5 12 8 12 -17 -1 -49 -11 -31 -55 -36 -63 -8
-2 9 -8 24 -11 33 -5 10 1 19 16 27 18 8 19 11 6 11 -10 1 -18 5 -18 11 0 10
29 29 45 30 6 0 16 -9 23 -20z"/>
</g>
</svg>
