<?xml version="1.0" standalone="no"?>
<!DOCTYPE svg PUBLIC "-//W3C//DTD SVG 20010904//EN"
 "http://www.w3.org/TR/2001/REC-SVG-20010904/DTD/svg10.dtd">
<svg version="1.0" xmlns="http://www.w3.org/2000/svg"
 width="225.000000pt" height="225.000000pt" viewBox="0 0 225.000000 225.000000"
 preserveAspectRatio="xMidYMid meet">

<g transform="translate(0.000000,225.000000) scale(0.100000,-0.100000)"
fill="#000000" stroke="none">
<path d="M392 2033 c-85 -42 -147 -142 -141 -227 3 -32 0 -47 -10 -51 -22 -8
-7 -70 43 -177 24 -53 56 -104 71 -116 60 -47 160 -54 214 -15 34 26 71 80 78
116 3 15 14 32 24 38 28 14 38 71 36 199 -2 83 -6 121 -17 136 -19 27 -104 92
-136 105 -39 14 -125 10 -162 -8z"/>
<path d="M1690 2029 c-95 -57 -150 -151 -135 -232 4 -21 3 -37 -4 -41 -25 -16
-10 -81 39 -183 39 -79 58 -107 86 -124 44 -27 110 -35 157 -20 44 15 102 78
115 124 5 19 19 44 30 55 32 32 39 78 32 206 l-6 118 -45 40 c-68 59 -110 78
-176 78 -41 0 -68 -6 -93 -21z"/>
<path d="M1065 1968 c-41 -15 -108 -64 -132 -96 -41 -56 -53 -91 -53 -156 0
-36 -4 -68 -10 -71 -19 -12 -10 -82 19 -141 16 -32 36 -78 46 -101 21 -50 67
-97 117 -117 106 -44 224 15 262 132 10 28 24 53 32 56 26 10 37 59 40 181 4
164 -2 182 -82 249 -86 71 -162 91 -239 64z"/>
<path d="M275 1419 c-16 -11 -71 -35 -122 -55 -112 -44 -122 -56 -130 -168 -6
-80 -5 -85 19 -109 50 -50 273 -106 425 -107 l81 0 6 53 c17 140 50 188 157
226 70 26 163 70 157 76 -1 2 -34 15 -73 30 -38 14 -89 37 -112 50 -24 13 -45
20 -47 17 -2 -4 -20 -61 -41 -126 -58 -186 -54 -181 -76 -118 -17 51 -17 53 1
95 16 36 17 45 6 62 -15 23 -71 32 -92 14 -18 -15 -18 -52 1 -88 13 -26 13
-34 -1 -75 -9 -25 -19 -46 -23 -46 -4 0 -27 63 -51 140 -24 78 -46 142 -49
144 -3 2 -19 -5 -36 -15z"/>
<path d="M1565 1414 c-22 -13 -73 -36 -112 -50 -40 -15 -73 -30 -73 -35 0 -4
48 -26 108 -49 127 -50 154 -68 177 -116 14 -29 32 -124 35 -176 0 -13 154 -9
244 7 122 21 257 73 274 105 17 32 10 156 -12 198 -12 24 -31 36 -88 57 -40
15 -97 40 -126 56 l-52 29 -10 -26 c-6 -15 -27 -80 -48 -145 -20 -66 -39 -119
-43 -119 -4 0 -14 21 -23 46 -14 41 -14 49 -1 75 20 37 19 85 -1 93 -31 12
-71 6 -88 -13 -17 -18 -17 -22 3 -65 19 -43 19 -49 4 -91 -8 -25 -18 -45 -22
-45 -4 0 -27 62 -50 138 -24 75 -46 140 -50 144 -3 4 -24 -4 -46 -18z"/>
<path d="M891 1267 c-19 -12 -78 -37 -130 -57 -91 -34 -97 -38 -118 -80 -30
-58 -33 -198 -6 -226 21 -20 103 -58 162 -74 37 -10 45 -9 68 10 28 21 73 26
103 10 15 -8 20 -4 30 20 18 44 50 60 122 60 72 0 99 -14 118 -59 10 -25 15
-29 30 -21 30 16 72 12 108 -10 39 -24 57 -20 174 32 l67 30 7 65 c8 78 -1
137 -26 179 -16 25 -36 37 -98 59 -42 15 -103 41 -136 57 -32 16 -59 28 -61
26 -2 -2 -25 -72 -52 -156 -26 -85 -53 -153 -58 -153 -6 1 -17 22 -26 49 -15
44 -15 49 2 84 35 69 19 108 -46 108 -65 0 -83 -43 -46 -110 18 -35 18 -36 -4
-95 l-22 -60 -54 167 c-30 93 -58 168 -64 167 -5 0 -26 -10 -44 -22z"/>
<path d="M1083 853 c-7 -2 -15 -20 -19 -39 -5 -27 -14 -39 -39 -51 -31 -15
-35 -15 -67 5 -37 23 -55 18 -82 -23 -16 -25 -16 -28 2 -58 17 -29 18 -35 6
-64 -9 -22 -23 -35 -41 -39 -51 -11 -53 -13 -53 -52 0 -43 12 -58 49 -64 15
-2 32 -16 44 -35 19 -33 19 -33 -3 -69 l-22 -35 28 -30 c32 -33 45 -35 79 -13
32 21 95 3 95 -27 0 -42 18 -59 64 -59 45 0 56 10 56 51 0 12 13 25 35 36 33
16 37 16 64 0 39 -23 53 -21 79 6 26 28 27 37 5 75 -14 25 -15 33 -4 61 9 20
23 33 40 37 52 11 52 12 49 61 -3 45 -4 48 -40 56 -27 6 -39 16 -49 39 -11 27
-10 35 9 68 l21 37 -34 33 -34 33 -34 -22 c-32 -20 -37 -20 -71 -6 -25 11 -36
22 -36 36 0 38 -19 59 -53 58 -18 0 -37 -3 -44 -6z m134 -199 c62 -47 81 -128
47 -201 -67 -141 -288 -94 -301 64 -5 64 26 118 87 151 56 29 117 24 167 -14z"/>
</g>
</svg>
